<svg width="310" height="89" viewBox="0 0 310 89" fill="none" xmlns="http://www.w3.org/2000/svg">
<rect width="310" height="89" fill="#2C3E50"/>
<path d="M43.3771 58.1053C44.5894 56.893 42.6536 52.3602 37.8386 47.5453C37.4395 47.1472 37.0445 46.7754 36.6515 46.4166C36.8692 46.2947 37.0888 46.1808 37.3136 46.082C37.6582 46.3995 37.9998 46.7219 38.3314 47.0535C42.5306 51.2527 45.7493 56.7187 43.8699 58.5991C42.1477 60.3203 37.4214 57.7617 33.4116 54.0945C33.7482 54.0945 34.0787 54.0945 34.4446 54.0945C38.6196 57.7758 42.3019 59.1796 43.3771 58.1053Z" fill="white"/>
<path d="M33.2423 54.2756L32.7637 53.8382H34.5403L34.6119 53.9007C38.7496 57.5517 42.2898 58.8314 43.1988 57.9235C43.7127 57.4095 43.4991 56.0148 42.6425 54.2845C41.6408 52.263 39.8722 49.9321 37.6613 47.7201C37.2652 47.3241 36.8722 46.9543 36.4822 46.5985L36.2242 46.3627L36.5296 46.1924C36.7543 46.0674 36.981 45.9505 37.2128 45.8478L37.364 45.7812L37.4859 45.8932C37.8336 46.2127 38.1772 46.5381 38.5108 46.8716C42.7372 51.0981 46.1152 56.7071 44.0493 58.774C43.622 59.2013 43.0446 59.3918 42.3613 59.3918C39.9529 59.3908 36.2414 57.0186 33.2423 54.2756ZM37.0838 46.4676C37.3932 46.7538 37.7046 47.0511 38.018 47.3645C40.2673 49.6128 42.0701 51.9919 43.095 54.0618C44.0947 56.0803 44.2579 57.5778 43.5565 58.2812C42.2767 59.5601 38.413 57.9043 34.3519 54.343H34.0727C37.7721 57.5949 42.1376 59.9733 43.6936 58.4184C45.438 56.673 42.1769 51.2512 38.1551 47.2284C37.8658 46.9391 37.5686 46.657 37.2683 46.3778C37.2048 46.405 37.1443 46.4364 37.0838 46.4676Z" fill="white"/>
<path d="M46.7199 49.4788C45.0501 48.076 40.4821 47.1348 35.3537 47.1348C29.4161 47.1348 23.2739 48.4851 23.2739 50.7465C23.2739 51.1899 23.5138 51.6162 23.9874 52.0132C25.6572 53.416 30.2253 54.3582 35.3547 54.3582C41.2923 54.3592 47.4344 53.0079 47.4344 50.7465C47.4334 50.3031 47.1936 49.8768 46.7199 49.4788ZM35.3537 53.7727C30.4752 53.7727 26.0039 52.8789 24.4792 51.599C24.1416 51.3149 23.9703 51.0287 23.9703 50.7455C23.9713 49.2833 28.5454 47.7182 35.3537 47.7182C40.2321 47.7182 44.7035 48.6111 46.2272 49.8919C46.5658 50.1761 46.7371 50.4633 46.7371 50.7455C46.7371 52.2087 42.162 53.7737 35.3537 53.7727Z" fill="white"/>
<path d="M35.3532 54.6248C30.1694 54.6248 25.5368 53.6584 23.8247 52.2204C23.2916 51.7729 23.0215 51.2812 23.0215 50.7612C23.0215 48.2509 29.3753 46.8965 35.3532 46.8965C40.537 46.8965 45.1705 47.8629 46.8817 49.3009C47.4148 49.7474 47.6848 50.2402 47.6848 50.7612C47.6848 53.2704 41.3311 54.6248 35.3532 54.6248ZM35.3532 47.4004C28.8311 47.4004 23.5254 48.9079 23.5254 50.7612C23.5254 51.126 23.735 51.4877 24.1491 51.8344C25.7776 53.2019 30.2802 54.121 35.3542 54.121C41.8762 54.121 47.182 52.6134 47.182 50.7612C47.182 50.3954 46.9724 50.0336 46.5582 49.6869C44.9307 48.3194 40.4281 47.4004 35.3532 47.4004ZM35.3532 54.0393C30.4203 54.0393 25.8824 53.1213 24.3174 51.8072C23.9194 51.4726 23.7178 51.1199 23.7178 50.7612C23.7178 48.923 28.8291 47.482 35.3532 47.482C40.286 47.482 44.8249 48.4 46.3889 49.7141C46.7869 50.0487 46.9885 50.4014 46.9885 50.7612C46.9875 52.5993 41.8772 54.0393 35.3532 54.0393ZM35.3532 47.9859C28.4572 47.9859 24.2227 49.6033 24.2217 50.7612C24.2217 50.9647 24.3628 51.1874 24.6419 51.4212C26.1243 52.6658 30.5291 53.5355 35.3532 53.5355C42.2491 53.5355 46.4836 51.9191 46.4836 50.7612C46.4836 50.5566 46.3425 50.3339 46.0634 50.1001C44.583 48.8555 40.1782 47.9859 35.3532 47.9859Z" fill="white"/>
<path d="M29.0547 41.0688C31.3059 41.4679 34.4934 43.5197 37.3141 46.1136C37.0893 46.2133 36.8686 46.3262 36.652 46.4481C32.4225 42.5845 28.6233 41.0245 27.3899 41.9577C27.2851 41.7561 27.151 41.5657 26.9878 41.4004C27.4997 41.0205 28.2041 40.9177 29.0547 41.0688Z" fill="white"/>
<path d="M36.4814 46.5994C32.27 42.7529 28.6291 41.3068 27.5407 42.1241L27.3029 42.3044L27.1659 42.0394C27.0671 41.8499 26.9472 41.6837 26.8081 41.5436L26.6025 41.338L26.8363 41.1647C27.3987 40.7455 28.1595 40.6195 29.0987 40.7858C31.2956 41.1748 34.4296 43.0834 37.4841 45.893L37.7662 46.153L37.4145 46.3082C37.1969 46.4049 36.9832 46.5148 36.7726 46.6327L36.6144 46.7203L36.4814 46.5994ZM29.011 41.2816C28.3449 41.1637 27.7937 41.212 27.3714 41.4247C27.4097 41.4741 27.445 41.5255 27.4793 41.5768C29.0967 40.812 32.8596 42.6461 36.689 46.1056C36.7484 46.0744 36.8079 46.0431 36.8683 46.0119C34.0074 43.4402 31.0205 41.6383 29.011 41.2816Z" fill="white"/>
<g filter="url(#filter0_d)">
<path d="M31.2992 51.4721C30.624 51.4721 30.0708 50.9198 30.0708 50.2437V47.0683C30.0708 46.3931 30.623 45.8398 31.2992 45.8398C31.9744 45.8398 32.5277 46.3921 32.5277 47.0683V50.2437C32.5267 50.9198 31.9744 51.4721 31.2992 51.4721Z" fill="#ECF0F1"/>
</g>
<g filter="url(#filter1_d)">
<path d="M35.2729 51.4785C34.5977 51.4785 34.0444 50.9262 34.0444 50.25V43.2069C34.0444 42.5318 34.5967 41.9785 35.2729 41.9785C35.948 41.9785 36.5003 42.5308 36.5003 43.2069V50.25C36.5013 50.9262 35.9491 51.4785 35.2729 51.4785Z" fill="#ECF0F1"/>
</g>
<g filter="url(#filter2_d)">
<path d="M39.2465 51.4638C38.5713 51.4638 38.0181 50.9116 38.0181 50.2354V39.8144C38.0181 39.1392 38.5703 38.5859 39.2465 38.5859C39.9217 38.5859 40.4749 39.1382 40.4749 39.8144V50.2354C40.4749 50.9116 39.9217 51.4638 39.2465 51.4638Z" fill="#ECF0F1"/>
</g>
<path opacity="0.3" d="M52.1822 37.4962C51.4617 35.7911 49.5853 32.2932 48.503 30.7937L47.4539 31.5505C47.3914 31.4638 47.3229 31.3641 47.2655 31.2845L46.7132 31.6825C46.4754 31.3258 46.2487 30.9882 46.0532 30.707L44.3975 31.8569C45.6209 33.6174 47.6142 36.7605 48.2158 38.2389C50.7422 44.4415 51.8315 59.3439 48.3105 64.6345C47.6313 65.6553 47.9296 66.2368 48.2984 66.5452C48.5211 66.7306 48.772 66.7991 49.0149 66.7991C49.029 66.7991 49.0411 66.7941 49.0552 66.7941L49.0814 66.8384C49.1137 66.8193 49.1399 66.7991 49.1711 66.779C49.3535 66.7578 49.5299 66.7124 49.679 66.6469L49.6861 66.659C49.7475 66.6218 49.7919 66.5945 49.8241 66.5754C49.9471 66.5089 50.0438 66.4373 50.1002 66.3829L50.1053 66.3174C50.198 66.2952 50.2897 66.2731 50.3864 66.2539C50.8661 66.1602 51.5222 66.0312 51.9253 65.3752C55.5995 59.3771 54.7661 43.6071 52.1822 37.4962Z" fill="#BDC3C7"/>
<path d="M22.6229 29.9492C22.6229 29.9492 19.119 34.7118 18.1627 37.0225C15.5909 43.2312 14.9833 57.9814 18.1627 63.9008C21.7049 70.4965 48.801 69.9523 52.4339 63.9008C55.8924 58.1396 55.0056 43.2312 52.4339 37.0225C51.7516 35.3759 49.588 32.0816 48.5097 30.5559" stroke="white" stroke-width="4" stroke-miterlimit="10"/>
<path d="M35.834 27.1025C43.1923 27.1025 49.1573 25.5126 49.1573 23.5513C49.1573 21.59 43.1923 20 35.834 20C28.4758 20 22.5107 21.59 22.5107 23.5513C22.5107 25.5126 28.4758 27.1025 35.834 27.1025Z" stroke="white" stroke-width="4" stroke-miterlimit="10"/>
<path d="M22.5107 25.4785V29.8622" stroke="white" stroke-width="3" stroke-miterlimit="10" stroke-linecap="round" stroke-linejoin="round"/>
<path d="M48.5098 30.5751C46.5971 31.7854 41.756 33.1791 35.8345 33.1791C28.476 33.1791 22.5112 31.4921 22.5112 29.4102" stroke="white" stroke-width="4" stroke-miterlimit="10" stroke-linecap="round"/>
<path d="M35.452 63.7406C38.8492 63.7406 41.6032 63.2998 41.6032 62.756C41.6032 62.2123 38.8492 61.7715 35.452 61.7715C32.0548 61.7715 29.3008 62.2123 29.3008 62.756C29.3008 63.2998 32.0548 63.7406 35.452 63.7406Z" fill="#ECF0F1"/>
<path d="M26.9871 41.3848C27.1503 41.55 27.2844 41.7395 27.3892 41.942C27.3529 41.9693 27.3106 41.9914 27.2793 42.0227C26.067 43.235 28.0029 47.7668 32.8168 52.5817C33.3661 53.1299 33.9082 53.6358 34.4443 54.1084C34.0785 54.1084 33.748 54.1084 33.4114 54.1084C33.0426 53.7708 32.6778 53.4282 32.3241 53.0745C28.1248 48.8753 24.9051 43.4093 26.7855 41.5299C26.846 41.4714 26.9216 41.4341 26.9871 41.3848Z" fill="white"/>
<path d="M33.2428 54.3129C32.8719 53.9723 32.5041 53.6277 32.1484 53.2719C27.9209 49.0455 24.544 43.4364 26.6098 41.3706C26.6673 41.3131 26.7287 41.2728 26.7781 41.2416L27.0129 41.0723L27.1661 41.2264C27.3414 41.4028 27.4916 41.6104 27.6135 41.8442L27.7113 42.0316L27.4594 42.2201C26.9454 42.734 27.159 44.1277 28.0156 45.859C29.0173 47.8805 30.7859 50.2114 32.9969 52.4234C33.5128 52.9394 34.057 53.4493 34.6133 53.9391L35.1131 54.3804H33.3153L33.2428 54.3129ZM32.6401 52.7781C30.3919 50.5289 28.588 48.1506 27.5631 46.0817C26.5816 44.0995 26.4053 42.6181 27.0653 41.9006C27.029 41.8442 26.9908 41.7918 26.9504 41.7404C25.2393 43.5019 28.4933 48.9044 32.5041 52.9152C32.8316 53.2427 33.1702 53.5611 33.5108 53.8746H33.7879C33.3959 53.5158 33.011 53.149 32.6401 52.7781Z" fill="white"/>
<path d="M68.5194 32.404C68.5194 31.0787 68.7248 29.8747 69.1354 28.792C69.5648 27.6906 70.1528 26.7573 70.8994 25.992C71.6648 25.208 72.5701 24.6013 73.6154 24.172C74.6608 23.7426 75.8088 23.528 77.0594 23.528C78.0114 23.528 78.8514 23.6493 79.5794 23.892C80.3261 24.116 80.9794 24.4426 81.5394 24.872V28.484C80.2514 27.364 78.8141 26.804 77.2274 26.804C76.4621 26.804 75.7621 26.9346 75.1274 27.196C74.5114 27.4573 73.9794 27.84 73.5314 28.344C73.0834 28.8293 72.7381 29.4173 72.4954 30.108C72.2528 30.7987 72.1314 31.564 72.1314 32.404C72.1314 33.244 72.2528 34.0093 72.4954 34.7C72.7381 35.372 73.0834 35.96 73.5314 36.464C73.9794 36.9493 74.5114 37.3227 75.1274 37.584C75.7621 37.8453 76.4621 37.976 77.2274 37.976C78.0488 37.976 78.8048 37.8453 79.4954 37.584C80.2048 37.3227 80.8861 36.9027 81.5394 36.324V39.936C80.9794 40.3653 80.3261 40.7013 79.5794 40.944C78.8514 41.168 78.0114 41.28 77.0594 41.28C75.8088 41.28 74.6608 41.0653 73.6154 40.636C72.5701 40.2067 71.6648 39.6093 70.8994 38.844C70.1528 38.06 69.5648 37.1267 69.1354 36.044C68.7248 34.9427 68.5194 33.7293 68.5194 32.404ZM96.1018 23.808V26.944H87.9538V30.696H95.3458V33.748H87.9538V37.836H96.1018V41H84.4258V23.808H96.1018ZM102.419 34.588V41H98.8633V23.808H105.947C107.758 23.808 109.214 24.2746 110.315 25.208C111.417 26.1413 111.967 27.4946 111.967 29.268C111.967 30.6493 111.613 31.7693 110.903 32.628C110.213 33.468 109.261 34.0373 108.047 34.336L112.583 41H108.551L104.295 34.588H102.419ZM102.419 31.648H105.723C106.619 31.648 107.291 31.4333 107.739 31.004C108.206 30.556 108.439 29.9773 108.439 29.268C108.439 28.54 108.206 27.9613 107.739 27.532C107.291 27.084 106.619 26.86 105.723 26.86H102.419V31.648ZM129.033 41H126.205L118.085 29.548V41H114.641V23.808H118.001L125.589 34.672V23.808H129.033V41ZM76.0234 51.552L73.2234 58.888H78.8514L76.0234 51.552ZM81.5674 66L79.5794 60.82H72.4954L70.5354 66H68.2954L75.0154 48.808H77.0874L83.8074 66H81.5674ZM86.2631 66V53.568H88.3631V55.136C88.7178 54.6507 89.2124 54.2307 89.8471 53.876C90.5004 53.5027 91.2284 53.316 92.0311 53.316C93.4311 53.316 94.5044 53.736 95.2511 54.576C96.0164 55.416 96.3991 56.508 96.3991 57.852V66H94.2711V58.188C94.2711 57.3293 94.0471 56.6293 93.5991 56.088C93.1511 55.528 92.4604 55.248 91.5271 55.248C90.7991 55.248 90.1458 55.472 89.5671 55.92C88.9884 56.3493 88.5871 56.9 88.3631 57.572V66H86.2631ZM106.878 62.92V61.632C106.71 61.1653 106.346 60.792 105.786 60.512C105.245 60.232 104.648 60.092 103.994 60.092C103.248 60.092 102.566 60.2693 101.95 60.624C101.334 60.96 101.026 61.5013 101.026 62.248C101.026 62.9947 101.334 63.5547 101.95 63.928C102.566 64.2827 103.248 64.46 103.994 64.46C104.648 64.46 105.245 64.32 105.786 64.04C106.346 63.76 106.71 63.3867 106.878 62.92ZM106.878 59.364V57.74C106.878 56.9747 106.608 56.368 106.066 55.92C105.544 55.472 104.825 55.248 103.91 55.248C103.22 55.248 102.585 55.3507 102.006 55.556C101.446 55.7427 100.905 56.004 100.382 56.34V54.352C100.793 54.0533 101.344 53.8107 102.034 53.624C102.744 53.4187 103.481 53.316 104.246 53.316C105.702 53.316 106.841 53.6987 107.662 54.464C108.502 55.2293 108.922 56.2653 108.922 57.572V66H106.878V65.076C106.636 65.3187 106.216 65.5707 105.618 65.832C105.04 66.0933 104.386 66.224 103.658 66.224C102.389 66.224 101.297 65.8693 100.382 65.16C99.4863 64.4507 99.0383 63.48 99.0383 62.248C99.0383 61.0907 99.4957 60.1573 100.41 59.448C101.325 58.72 102.445 58.356 103.77 58.356C104.405 58.356 105.012 58.468 105.59 58.692C106.188 58.8973 106.617 59.1213 106.878 59.364ZM114.613 47.8V66H112.513V47.8H114.613ZM122.033 70.76H119.961L121.837 66.084L116.993 53.568H119.261L122.929 63.368L126.541 53.568H128.725L122.033 70.76ZM130.297 65.02V62.78C130.876 63.3027 131.51 63.7133 132.201 64.012C132.91 64.3107 133.638 64.46 134.385 64.46C135.076 64.46 135.673 64.3293 136.177 64.068C136.7 63.788 136.961 63.34 136.961 62.724C136.961 62.2573 136.793 61.8933 136.457 61.632C136.14 61.352 135.71 61.1187 135.169 60.932L133.461 60.344C132.528 60.0453 131.772 59.6347 131.193 59.112C130.614 58.5893 130.325 57.824 130.325 56.816C130.325 55.7333 130.745 54.884 131.585 54.268C132.444 53.6333 133.489 53.316 134.721 53.316C135.412 53.316 136.074 53.4093 136.709 53.596C137.344 53.7827 137.913 54.0533 138.417 54.408V56.592C137.894 56.1627 137.334 55.808 136.737 55.528C136.14 55.248 135.468 55.108 134.721 55.108C134.086 55.108 133.536 55.248 133.069 55.528C132.602 55.808 132.369 56.2093 132.369 56.732C132.369 57.236 132.528 57.6093 132.845 57.852C133.181 58.076 133.638 58.2907 134.217 58.496L136.121 59.14C137.054 59.4573 137.773 59.9053 138.277 60.484C138.781 61.044 139.033 61.7627 139.033 62.64C139.033 63.7787 138.576 64.6653 137.661 65.3C136.765 65.9347 135.673 66.252 134.385 66.252C133.582 66.252 132.817 66.14 132.089 65.916C131.361 65.6733 130.764 65.3747 130.297 65.02ZM144.425 49.816C144.425 50.1707 144.285 50.488 144.005 50.768C143.744 51.0293 143.426 51.16 143.053 51.16C142.698 51.16 142.381 51.0293 142.101 50.768C141.84 50.488 141.709 50.1707 141.709 49.816C141.709 49.4427 141.84 49.1253 142.101 48.864C142.381 48.6027 142.698 48.472 143.053 48.472C143.426 48.472 143.744 48.6027 144.005 48.864C144.285 49.1253 144.425 49.4427 144.425 49.816ZM144.117 53.568V66H142.017V53.568H144.117ZM147.141 65.02V62.78C147.719 63.3027 148.354 63.7133 149.045 64.012C149.754 64.3107 150.482 64.46 151.229 64.46C151.919 64.46 152.517 64.3293 153.021 64.068C153.543 63.788 153.805 63.34 153.805 62.724C153.805 62.2573 153.637 61.8933 153.301 61.632C152.983 61.352 152.554 61.1187 152.013 60.932L150.305 60.344C149.371 60.0453 148.615 59.6347 148.037 59.112C147.458 58.5893 147.169 57.824 147.169 56.816C147.169 55.7333 147.589 54.884 148.429 54.268C149.287 53.6333 150.333 53.316 151.565 53.316C152.255 53.316 152.918 53.4093 153.553 53.596C154.187 53.7827 154.757 54.0533 155.261 54.408V56.592C154.738 56.1627 154.178 55.808 153.581 55.528C152.983 55.248 152.311 55.108 151.565 55.108C150.93 55.108 150.379 55.248 149.913 55.528C149.446 55.808 149.213 56.2093 149.213 56.732C149.213 57.236 149.371 57.6093 149.689 57.852C150.025 58.076 150.482 58.2907 151.061 58.496L152.965 59.14C153.898 59.4573 154.617 59.9053 155.121 60.484C155.625 61.044 155.877 61.7627 155.877 62.64C155.877 63.7787 155.419 64.6653 154.505 65.3C153.609 65.9347 152.517 66.252 151.229 66.252C150.426 66.252 149.661 66.14 148.933 65.916C148.205 65.6733 147.607 65.3747 147.141 65.02ZM171.565 59.112H167.421V66H165.209V48.808H171.565C173.301 48.808 174.691 49.2467 175.737 50.124C176.782 51.0013 177.305 52.28 177.305 53.96C177.305 55.64 176.782 56.9187 175.737 57.796C174.691 58.6733 173.301 59.112 171.565 59.112ZM171.537 57.152C172.694 57.152 173.581 56.8627 174.197 56.284C174.813 55.6867 175.121 54.912 175.121 53.96C175.121 52.9893 174.813 52.2147 174.197 51.636C173.581 51.0387 172.694 50.74 171.537 50.74H167.421V57.152H171.537ZM186.382 53.512V55.668C186.214 55.556 185.999 55.472 185.738 55.416C185.495 55.36 185.243 55.332 184.982 55.332C184.328 55.332 183.731 55.5373 183.19 55.948C182.667 56.3587 182.303 56.928 182.098 57.656V66H179.998V53.568H182.098V55.192C182.359 54.6693 182.76 54.2307 183.302 53.876C183.862 53.5027 184.487 53.316 185.178 53.316C185.439 53.316 185.672 53.3347 185.878 53.372C186.102 53.4093 186.27 53.456 186.382 53.512ZM193.314 55.108C192.512 55.108 191.793 55.388 191.158 55.948C190.524 56.508 190.113 57.3573 189.926 58.496H196.338C196.301 57.5813 196.04 56.788 195.554 56.116C195.069 55.444 194.322 55.108 193.314 55.108ZM197.514 65.16C197.01 65.552 196.441 65.832 195.806 66C195.172 66.168 194.481 66.252 193.734 66.252C191.942 66.252 190.496 65.6827 189.394 64.544C188.293 63.3867 187.742 61.8373 187.742 59.896C187.742 57.9733 188.256 56.396 189.282 55.164C190.309 53.932 191.644 53.316 193.286 53.316C194.966 53.316 196.236 53.876 197.094 54.996C197.953 56.116 198.382 57.5813 198.382 59.392V60.148H189.814C189.87 61.5853 190.3 62.6587 191.102 63.368C191.905 64.0587 192.866 64.404 193.986 64.404C194.677 64.404 195.293 64.3107 195.834 64.124C196.394 63.9373 196.954 63.6387 197.514 63.228V65.16ZM200.625 65.02V62.78C201.204 63.3027 201.838 63.7133 202.529 64.012C203.238 64.3107 203.966 64.46 204.713 64.46C205.404 64.46 206.001 64.3293 206.505 64.068C207.028 63.788 207.289 63.34 207.289 62.724C207.289 62.2573 207.121 61.8933 206.785 61.632C206.468 61.352 206.038 61.1187 205.497 60.932L203.789 60.344C202.856 60.0453 202.1 59.6347 201.521 59.112C200.942 58.5893 200.653 57.824 200.653 56.816C200.653 55.7333 201.073 54.884 201.913 54.268C202.772 53.6333 203.817 53.316 205.049 53.316C205.74 53.316 206.402 53.4093 207.037 53.596C207.672 53.7827 208.241 54.0533 208.745 54.408V56.592C208.222 56.1627 207.662 55.808 207.065 55.528C206.468 55.248 205.796 55.108 205.049 55.108C204.414 55.108 203.864 55.248 203.397 55.528C202.93 55.808 202.697 56.2093 202.697 56.732C202.697 57.236 202.856 57.6093 203.173 57.852C203.509 58.076 203.966 58.2907 204.545 58.496L206.449 59.14C207.382 59.4573 208.101 59.9053 208.605 60.484C209.109 61.044 209.361 61.7627 209.361 62.64C209.361 63.7787 208.904 64.6653 207.989 65.3C207.093 65.9347 206.001 66.252 204.713 66.252C203.91 66.252 203.145 66.14 202.417 65.916C201.689 65.6733 201.092 65.3747 200.625 65.02ZM217.021 55.108C216.219 55.108 215.5 55.388 214.865 55.948C214.231 56.508 213.82 57.3573 213.633 58.496H220.045C220.008 57.5813 219.747 56.788 219.261 56.116C218.776 55.444 218.029 55.108 217.021 55.108ZM221.221 65.16C220.717 65.552 220.148 65.832 219.513 66C218.879 66.168 218.188 66.252 217.441 66.252C215.649 66.252 214.203 65.6827 213.101 64.544C212 63.3867 211.449 61.8373 211.449 59.896C211.449 57.9733 211.963 56.396 212.989 55.164C214.016 53.932 215.351 53.316 216.993 53.316C218.673 53.316 219.943 53.876 220.801 54.996C221.66 56.116 222.089 57.5813 222.089 59.392V60.148H213.521C213.577 61.5853 214.007 62.6587 214.809 63.368C215.612 64.0587 216.573 64.404 217.693 64.404C218.384 64.404 219 64.3107 219.541 64.124C220.101 63.9373 220.661 63.6387 221.221 63.228V65.16ZM231.335 53.512V55.668C231.167 55.556 230.952 55.472 230.691 55.416C230.448 55.36 230.196 55.332 229.935 55.332C229.281 55.332 228.684 55.5373 228.143 55.948C227.62 56.3587 227.256 56.928 227.051 57.656V66H224.951V53.568H227.051V55.192C227.312 54.6693 227.713 54.2307 228.255 53.876C228.815 53.5027 229.44 53.316 230.131 53.316C230.392 53.316 230.625 53.3347 230.831 53.372C231.055 53.4093 231.223 53.456 231.335 53.512ZM239.463 66H237.391L232.575 53.568H234.843L238.483 63.34L242.095 53.568H244.307L239.463 66ZM253.386 62.92V61.632C253.218 61.1653 252.854 60.792 252.294 60.512C251.753 60.232 251.156 60.092 250.502 60.092C249.756 60.092 249.074 60.2693 248.458 60.624C247.842 60.96 247.534 61.5013 247.534 62.248C247.534 62.9947 247.842 63.5547 248.458 63.928C249.074 64.2827 249.756 64.46 250.502 64.46C251.156 64.46 251.753 64.32 252.294 64.04C252.854 63.76 253.218 63.3867 253.386 62.92ZM253.386 59.364V57.74C253.386 56.9747 253.116 56.368 252.574 55.92C252.052 55.472 251.333 55.248 250.418 55.248C249.728 55.248 249.093 55.3507 248.514 55.556C247.954 55.7427 247.413 56.004 246.89 56.34V54.352C247.301 54.0533 247.852 53.8107 248.542 53.624C249.252 53.4187 249.989 53.316 250.754 53.316C252.21 53.316 253.349 53.6987 254.17 54.464C255.01 55.2293 255.43 56.2653 255.43 57.572V66H253.386V65.076C253.144 65.3187 252.724 65.5707 252.126 65.832C251.548 66.0933 250.894 66.224 250.166 66.224C248.897 66.224 247.805 65.8693 246.89 65.16C245.994 64.4507 245.546 63.48 245.546 62.248C245.546 61.0907 246.004 60.1573 246.918 59.448C247.833 58.72 248.953 58.356 250.278 58.356C250.913 58.356 251.52 58.468 252.098 58.692C252.696 58.8973 253.125 59.1213 253.386 59.364ZM262.411 55.36V66H260.311V55.36H257.707V53.568H260.311V50.292H262.411V53.568H265.295V55.36H262.411ZM270.261 49.816C270.261 50.1707 270.121 50.488 269.841 50.768C269.58 51.0293 269.262 51.16 268.889 51.16C268.534 51.16 268.217 51.0293 267.937 50.768C267.676 50.488 267.545 50.1707 267.545 49.816C267.545 49.4427 267.676 49.1253 267.937 48.864C268.217 48.6027 268.534 48.472 268.889 48.472C269.262 48.472 269.58 48.6027 269.841 48.864C270.121 49.1253 270.261 49.4427 270.261 49.816ZM269.953 53.568V66H267.853V53.568H269.953ZM284.233 59.784C284.233 61.6693 283.701 63.2187 282.637 64.432C281.573 65.6453 280.201 66.252 278.521 66.252C276.822 66.252 275.441 65.6453 274.377 64.432C273.331 63.2187 272.809 61.6693 272.809 59.784C272.809 57.8987 273.331 56.3493 274.377 55.136C275.441 53.9227 276.822 53.316 278.521 53.316C280.201 53.316 281.573 53.9227 282.637 55.136C283.701 56.3493 284.233 57.8987 284.233 59.784ZM282.105 59.784C282.105 58.44 281.787 57.3387 281.153 56.48C280.518 55.6027 279.641 55.164 278.521 55.164C277.401 55.164 276.523 55.6027 275.889 56.48C275.254 57.3387 274.937 58.44 274.937 59.784C274.937 61.128 275.254 62.2387 275.889 63.116C276.523 63.9747 277.401 64.404 278.521 64.404C279.641 64.404 280.518 63.9747 281.153 63.116C281.787 62.2387 282.105 61.128 282.105 59.784ZM287.076 66V53.568H289.176V55.136C289.53 54.6507 290.025 54.2307 290.66 53.876C291.313 53.5027 292.041 53.316 292.844 53.316C294.244 53.316 295.317 53.736 296.064 54.576C296.829 55.416 297.212 56.508 297.212 57.852V66H295.084V58.188C295.084 57.3293 294.86 56.6293 294.412 56.088C293.964 55.528 293.273 55.248 292.34 55.248C291.612 55.248 290.958 55.472 290.38 55.92C289.801 56.3493 289.4 56.9 289.176 57.572V66H287.076Z" fill="white"/>
<defs>
<filter id="filter0_d" x="26.0708" y="45.8398" width="10.4569" height="13.6323" filterUnits="userSpaceOnUse" color-interpolation-filters="sRGB">
<feFlood flood-opacity="0" result="BackgroundImageFix"/>
<feColorMatrix in="SourceAlpha" type="matrix" values="0 0 0 0 0 0 0 0 0 0 0 0 0 0 0 0 0 0 127 0"/>
<feOffset dy="4"/>
<feGaussianBlur stdDeviation="2"/>
<feColorMatrix type="matrix" values="0 0 0 0 0 0 0 0 0 0 0 0 0 0 0 0 0 0 0.25 0"/>
<feBlend mode="normal" in2="BackgroundImageFix" result="effect1_dropShadow"/>
<feBlend mode="normal" in="SourceGraphic" in2="effect1_dropShadow" result="shape"/>
</filter>
<filter id="filter1_d" x="30.0444" y="41.9785" width="10.4559" height="17.5" filterUnits="userSpaceOnUse" color-interpolation-filters="sRGB">
<feFlood flood-opacity="0" result="BackgroundImageFix"/>
<feColorMatrix in="SourceAlpha" type="matrix" values="0 0 0 0 0 0 0 0 0 0 0 0 0 0 0 0 0 0 127 0"/>
<feOffset dy="4"/>
<feGaussianBlur stdDeviation="2"/>
<feColorMatrix type="matrix" values="0 0 0 0 0 0 0 0 0 0 0 0 0 0 0 0 0 0 0.25 0"/>
<feBlend mode="normal" in2="BackgroundImageFix" result="effect1_dropShadow"/>
<feBlend mode="normal" in="SourceGraphic" in2="effect1_dropShadow" result="shape"/>
</filter>
<filter id="filter2_d" x="34.0181" y="38.5859" width="10.4568" height="20.8779" filterUnits="userSpaceOnUse" color-interpolation-filters="sRGB">
<feFlood flood-opacity="0" result="BackgroundImageFix"/>
<feColorMatrix in="SourceAlpha" type="matrix" values="0 0 0 0 0 0 0 0 0 0 0 0 0 0 0 0 0 0 127 0"/>
<feOffset dy="4"/>
<feGaussianBlur stdDeviation="2"/>
<feColorMatrix type="matrix" values="0 0 0 0 0 0 0 0 0 0 0 0 0 0 0 0 0 0 0.25 0"/>
<feBlend mode="normal" in2="BackgroundImageFix" result="effect1_dropShadow"/>
<feBlend mode="normal" in="SourceGraphic" in2="effect1_dropShadow" result="shape"/>
</filter>
</defs>
</svg>
