<svg width="43" height="53" viewBox="0 0 43 53" fill="none" xmlns="http://www.w3.org/2000/svg">
<path d="M29.3771 40.1053C30.5894 38.893 28.6536 34.3602 23.8386 29.5453C23.4395 29.1472 23.0445 28.7754 22.6515 28.4166C22.8692 28.2947 23.0888 28.1808 23.3136 28.082C23.6582 28.3995 23.9998 28.7219 24.3314 29.0535C28.5306 33.2527 31.7493 38.7187 29.8699 40.5991C28.1477 42.3203 23.4214 39.7617 19.4116 36.0945C19.7482 36.0945 20.0787 36.0945 20.4446 36.0945C24.6196 39.7758 28.3019 41.1796 29.3771 40.1053Z" fill="white"/>
<path d="M19.2423 36.2756L18.7637 35.8382H20.5403L20.6119 35.9007C24.7496 39.5517 28.2898 40.8314 29.1988 39.9235C29.7127 39.4095 29.4991 38.0148 28.6425 36.2845C27.6408 34.263 25.8722 31.9321 23.6613 29.7201C23.2652 29.3241 22.8722 28.9543 22.4822 28.5985L22.2242 28.3627L22.5296 28.1924C22.7543 28.0674 22.981 27.9505 23.2128 27.8478L23.364 27.7812L23.4859 27.8932C23.8336 28.2127 24.1772 28.5381 24.5108 28.8716C28.7372 33.0981 32.1152 38.7071 30.0493 40.774C29.622 41.2013 29.0446 41.3918 28.3613 41.3918C25.9529 41.3907 22.2414 39.0186 19.2423 36.2756ZM23.0838 28.4676C23.3932 28.7538 23.7046 29.0511 24.018 29.3645C26.2673 31.6128 28.0701 33.9919 29.095 36.0618C30.0947 38.0803 30.2579 39.5779 29.5565 40.2812C28.2767 41.5601 24.413 39.9043 20.3519 36.343H20.0727C23.7721 39.5949 28.1376 41.9733 29.6936 40.4184C31.438 38.673 28.1769 33.2512 24.1551 29.2284C23.8658 28.9391 23.5686 28.657 23.2683 28.3778C23.2048 28.405 23.1443 28.4364 23.0838 28.4676Z" fill="white"/>
<path d="M32.7199 31.4788C31.0501 30.076 26.4821 29.1348 21.3537 29.1348C15.4161 29.1348 9.27393 30.4851 9.27393 32.7465C9.27393 33.1899 9.51377 33.6162 9.9874 34.0132C11.6572 35.416 16.2253 36.3582 21.3547 36.3582C27.2923 36.3592 33.4344 35.0079 33.4344 32.7465C33.4334 32.3031 33.1936 31.8768 32.7199 31.4788ZM21.3537 35.7727C16.4752 35.7727 12.0039 34.8789 10.4792 33.599C10.1416 33.3149 9.97027 33.0287 9.97027 32.7455C9.97128 31.2833 14.5454 29.7182 21.3537 29.7182C26.2321 29.7182 30.7035 30.6111 32.2272 31.8919C32.5658 32.1761 32.7371 32.4633 32.7371 32.7455C32.7371 34.2087 28.162 35.7737 21.3537 35.7727Z" fill="white"/>
<path d="M21.3532 36.6248C16.1694 36.6248 11.5368 35.6584 9.82465 34.2204C9.29156 33.7729 9.02148 33.2812 9.02148 32.7612C9.02148 30.2509 15.3753 28.8965 21.3532 28.8965C26.537 28.8965 31.1705 29.8629 32.8817 31.3009C33.4148 31.7474 33.6848 32.2402 33.6848 32.7612C33.6848 35.2704 27.3311 36.6248 21.3532 36.6248ZM21.3532 29.4004C14.8311 29.4004 9.52535 30.9079 9.52535 32.7612C9.52535 33.126 9.73497 33.4877 10.1491 33.8344C11.7776 35.2019 16.2802 36.121 21.3542 36.121C27.8762 36.121 33.182 34.6134 33.182 32.7612C33.182 32.3954 32.9724 32.0336 32.5582 31.6869C30.9307 30.3194 26.4281 29.4004 21.3532 29.4004ZM21.3532 36.0393C16.4203 36.0393 11.8824 35.1213 10.3174 33.8072C9.91938 33.4726 9.71783 33.1199 9.71783 32.7612C9.71783 30.923 14.8291 29.482 21.3532 29.482C26.286 29.482 30.8249 30.4 32.3889 31.7141C32.7869 32.0487 32.9885 32.4014 32.9885 32.7612C32.9875 34.5993 27.8772 36.0393 21.3532 36.0393ZM21.3532 29.9859C14.4572 29.9859 10.2227 31.6033 10.2217 32.7612C10.2217 32.9647 10.3628 33.1874 10.6419 33.4212C12.1243 34.6658 16.5291 35.5355 21.3532 35.5355C28.2491 35.5355 32.4836 33.9191 32.4836 32.7612C32.4836 32.5566 32.3425 32.3339 32.0634 32.1001C30.583 30.8555 26.1782 29.9859 21.3532 29.9859Z" fill="white"/>
<path d="M15.0547 23.0688C17.3059 23.4679 20.4934 25.5197 23.3141 28.1136C23.0893 28.2133 22.8686 28.3262 22.652 28.4481C18.4225 24.5845 14.6233 23.0245 13.3899 23.9577C13.2851 23.7561 13.151 23.5657 12.9878 23.4004C13.4997 23.0205 14.2041 22.9177 15.0547 23.0688Z" fill="white"/>
<path d="M22.4814 28.5994C18.27 24.7529 14.6291 23.3068 13.5407 24.1241L13.3029 24.3044L13.1659 24.0394C13.0671 23.8499 12.9472 23.6837 12.8081 23.5436L12.6025 23.338L12.8363 23.1647C13.3987 22.7455 14.1595 22.6195 15.0987 22.7858C17.2956 23.1748 20.4296 25.0834 23.4841 27.893L23.7662 28.153L23.4145 28.3082C23.1969 28.4049 22.9832 28.5148 22.7726 28.6327L22.6144 28.7203L22.4814 28.5994ZM15.011 23.2816C14.3449 23.1637 13.7937 23.212 13.3714 23.4247C13.4097 23.4741 13.445 23.5255 13.4793 23.5768C15.0967 22.812 18.8596 24.6461 22.689 28.1056C22.7484 28.0744 22.8079 28.0431 22.8683 28.0119C20.0074 25.4402 17.0205 23.6383 15.011 23.2816Z" fill="white"/>
<g filter="url(#filter0_d)">
<path d="M17.2992 33.4721C16.624 33.4721 16.0708 32.9198 16.0708 32.2437V29.0683C16.0708 28.3931 16.623 27.8398 17.2992 27.8398C17.9744 27.8398 18.5277 28.3921 18.5277 29.0683V32.2437C18.5267 32.9198 17.9744 33.4721 17.2992 33.4721Z" fill="#ECF0F1"/>
</g>
<g filter="url(#filter1_d)">
<path d="M21.2729 33.4785C20.5977 33.4785 20.0444 32.9262 20.0444 32.25V25.2069C20.0444 24.5318 20.5967 23.9785 21.2729 23.9785C21.948 23.9785 22.5003 24.5308 22.5003 25.2069V32.25C22.5013 32.9262 21.9491 33.4785 21.2729 33.4785Z" fill="#ECF0F1"/>
</g>
<g filter="url(#filter2_d)">
<path d="M25.2465 33.4638C24.5713 33.4638 24.0181 32.9116 24.0181 32.2354V21.8144C24.0181 21.1392 24.5703 20.5859 25.2465 20.5859C25.9217 20.5859 26.4749 21.1382 26.4749 21.8144V32.2354C26.4749 32.9116 25.9217 33.4638 25.2465 33.4638Z" fill="#ECF0F1"/>
</g>
<path opacity="0.3" d="M38.1822 19.4962C37.4617 17.7911 35.5853 14.2932 34.503 12.7937L33.4539 13.5505C33.3914 13.4638 33.3229 13.3641 33.2655 13.2845L32.7132 13.6825C32.4754 13.3258 32.2487 12.9882 32.0532 12.707L30.3975 13.8569C31.6209 15.6174 33.6142 18.7605 34.2158 20.2389C36.7422 26.4415 37.8315 41.3439 34.3105 46.6345C33.6313 47.6553 33.9296 48.2368 34.2984 48.5452C34.5211 48.7306 34.772 48.7991 35.0149 48.7991C35.029 48.7991 35.0411 48.7941 35.0552 48.7941L35.0814 48.8384C35.1137 48.8193 35.1399 48.7991 35.1711 48.779C35.3535 48.7578 35.5299 48.7124 35.679 48.6469L35.6861 48.659C35.7475 48.6218 35.7919 48.5945 35.8241 48.5754C35.9471 48.5089 36.0438 48.4373 36.1002 48.3829L36.1053 48.3174C36.198 48.2952 36.2897 48.2731 36.3864 48.2539C36.8661 48.1602 37.5222 48.0312 37.9253 47.3752C41.5995 41.3771 40.7661 25.6071 38.1822 19.4962Z" fill="#BDC3C7"/>
<path d="M8.62293 11.9492C8.62293 11.9492 5.11902 16.7118 4.16267 19.0225C1.59092 25.2312 0.983259 39.9814 4.16267 45.9008C7.70488 52.4965 34.801 51.9523 38.4339 45.9008C41.8924 40.1396 41.0056 25.2312 38.4339 19.0225C37.7516 17.3759 35.588 14.0816 34.5097 12.5559" stroke="white" stroke-width="4" stroke-miterlimit="10"/>
<path d="M21.834 9.10253C29.1923 9.10253 35.1573 7.51257 35.1573 5.55126C35.1573 3.58996 29.1923 2 21.834 2C14.4758 2 8.51074 3.58996 8.51074 5.55126C8.51074 7.51257 14.4758 9.10253 21.834 9.10253Z" stroke="white" stroke-width="4" stroke-miterlimit="10"/>
<path d="M8.51074 7.47852V11.8622" stroke="white" stroke-width="3" stroke-miterlimit="10" stroke-linecap="round" stroke-linejoin="round"/>
<path d="M34.5098 12.5751C32.5971 13.7854 27.756 15.1791 21.8345 15.1791C14.476 15.1791 8.51123 13.4921 8.51123 11.4102" stroke="white" stroke-width="4" stroke-miterlimit="10" stroke-linecap="round"/>
<path d="M21.452 45.7406C24.8492 45.7406 27.6032 45.2998 27.6032 44.756C27.6032 44.2123 24.8492 43.7715 21.452 43.7715C18.0548 43.7715 15.3008 44.2123 15.3008 44.756C15.3008 45.2998 18.0548 45.7406 21.452 45.7406Z" fill="#ECF0F1"/>
<path d="M12.9871 23.3848C13.1503 23.55 13.2844 23.7395 13.3892 23.942C13.3529 23.9693 13.3106 23.9914 13.2793 24.0227C12.067 25.235 14.0029 29.7668 18.8168 34.5817C19.3661 35.1299 19.9082 35.6358 20.4443 36.1084C20.0785 36.1084 19.748 36.1084 19.4114 36.1084C19.0426 35.7708 18.6778 35.4282 18.3241 35.0745C14.1248 30.8753 10.9051 25.4093 12.7855 23.5299C12.846 23.4714 12.9216 23.4341 12.9871 23.3848Z" fill="white"/>
<path d="M19.2428 36.3129C18.8719 35.9723 18.5041 35.6277 18.1484 35.2719C13.9209 31.0455 10.544 25.4364 12.6098 23.3706C12.6673 23.3131 12.7287 23.2728 12.7781 23.2416L13.0129 23.0723L13.1661 23.2264C13.3414 23.4028 13.4916 23.6104 13.6135 23.8442L13.7113 24.0316L13.4594 24.2201C12.9454 24.734 13.159 26.1277 14.0156 27.859C15.0173 29.8805 16.7859 32.2114 18.9969 34.4234C19.5128 34.9394 20.057 35.4493 20.6133 35.9391L21.1131 36.3804H19.3153L19.2428 36.3129ZM18.6401 34.7781C16.3919 32.5289 14.588 30.1506 13.5631 28.0817C12.5816 26.0995 12.4053 24.6181 13.0653 23.9006C13.029 23.8442 12.9908 23.7918 12.9504 23.7404C11.2393 25.5019 14.4933 30.9044 18.5041 34.9152C18.8316 35.2427 19.1702 35.5611 19.5108 35.8746H19.7879C19.3959 35.5158 19.011 35.149 18.6401 34.7781Z" fill="white"/>
<defs>
<filter id="filter0_d" x="12.0708" y="27.8398" width="10.4569" height="13.6323" filterUnits="userSpaceOnUse" color-interpolation-filters="sRGB">
<feFlood flood-opacity="0" result="BackgroundImageFix"/>
<feColorMatrix in="SourceAlpha" type="matrix" values="0 0 0 0 0 0 0 0 0 0 0 0 0 0 0 0 0 0 127 0"/>
<feOffset dy="4"/>
<feGaussianBlur stdDeviation="2"/>
<feColorMatrix type="matrix" values="0 0 0 0 0 0 0 0 0 0 0 0 0 0 0 0 0 0 0.25 0"/>
<feBlend mode="normal" in2="BackgroundImageFix" result="effect1_dropShadow"/>
<feBlend mode="normal" in="SourceGraphic" in2="effect1_dropShadow" result="shape"/>
</filter>
<filter id="filter1_d" x="16.0444" y="23.9785" width="10.4559" height="17.5" filterUnits="userSpaceOnUse" color-interpolation-filters="sRGB">
<feFlood flood-opacity="0" result="BackgroundImageFix"/>
<feColorMatrix in="SourceAlpha" type="matrix" values="0 0 0 0 0 0 0 0 0 0 0 0 0 0 0 0 0 0 127 0"/>
<feOffset dy="4"/>
<feGaussianBlur stdDeviation="2"/>
<feColorMatrix type="matrix" values="0 0 0 0 0 0 0 0 0 0 0 0 0 0 0 0 0 0 0.25 0"/>
<feBlend mode="normal" in2="BackgroundImageFix" result="effect1_dropShadow"/>
<feBlend mode="normal" in="SourceGraphic" in2="effect1_dropShadow" result="shape"/>
</filter>
<filter id="filter2_d" x="20.0181" y="20.5859" width="10.4568" height="20.8779" filterUnits="userSpaceOnUse" color-interpolation-filters="sRGB">
<feFlood flood-opacity="0" result="BackgroundImageFix"/>
<feColorMatrix in="SourceAlpha" type="matrix" values="0 0 0 0 0 0 0 0 0 0 0 0 0 0 0 0 0 0 127 0"/>
<feOffset dy="4"/>
<feGaussianBlur stdDeviation="2"/>
<feColorMatrix type="matrix" values="0 0 0 0 0 0 0 0 0 0 0 0 0 0 0 0 0 0 0.25 0"/>
<feBlend mode="normal" in2="BackgroundImageFix" result="effect1_dropShadow"/>
<feBlend mode="normal" in="SourceGraphic" in2="effect1_dropShadow" result="shape"/>
</filter>
</defs>
</svg>
