<svg width="310" height="89" viewBox="0 0 310 89" fill="none" xmlns="http://www.w3.org/2000/svg">
<rect width="310" height="89" fill="white"/>
<path d="M41.3776 57.1053C42.5899 55.893 40.6541 51.3602 35.8391 46.5453C35.44 46.1472 35.045 45.7754 34.652 45.4166C34.8697 45.2947 35.0893 45.1808 35.3141 45.082C35.6587 45.3995 36.0003 45.7219 36.3319 46.0535C40.5311 50.2527 43.7498 55.7187 41.8704 57.5991C40.1482 59.3203 35.4219 56.7617 31.4121 53.0945C31.7487 53.0945 32.0792 53.0945 32.445 53.0945C36.6201 56.7758 40.3024 58.1796 41.3776 57.1053Z" fill="#2C3E50"/>
<path d="M31.2428 53.2756L30.7642 52.8382H32.5408L32.6123 52.9007C36.7501 56.5517 40.2903 57.8314 41.1993 56.9235C41.7132 56.4095 41.4996 55.0148 40.643 53.2845C39.6413 51.263 37.8727 48.9321 35.6618 46.7201C35.2657 46.3241 34.8727 45.9543 34.4827 45.5985L34.2247 45.3627L34.5301 45.1924C34.7548 45.0674 34.9815 44.9505 35.2133 44.8478L35.3645 44.7812L35.4864 44.8932C35.8341 45.2127 36.1777 45.5381 36.5113 45.8716C40.7377 50.0981 44.1157 55.7071 42.0498 57.774C41.6225 58.2013 41.0451 58.3918 40.3618 58.3918C37.9533 58.3908 34.2419 56.0186 31.2428 53.2756ZM35.0843 45.4676C35.3937 45.7538 35.7051 46.0511 36.0185 46.3645C38.2678 48.6128 40.0706 50.9919 41.0955 53.0618C42.0951 55.0803 42.2584 56.5778 41.557 57.2812C40.2772 58.5601 36.4135 56.9043 32.3524 53.343H32.0732C35.7726 56.5949 40.1381 58.9733 41.6941 57.4184C43.4385 55.673 40.1774 50.2512 36.1555 46.2284C35.8663 45.9391 35.569 45.657 35.2687 45.3778C35.2053 45.405 35.1448 45.4364 35.0843 45.4676Z" fill="#2C3E50"/>
<path d="M44.7204 48.4788C43.0506 47.076 38.4825 46.1348 33.3542 46.1348C27.4166 46.1348 21.2744 47.4851 21.2744 49.7465C21.2744 50.1899 21.5143 50.6162 21.9879 51.0132C23.6577 52.416 28.2258 53.3582 33.3552 53.3582C39.2928 53.3592 45.4349 52.0079 45.4349 49.7465C45.4339 49.3031 45.1941 48.8768 44.7204 48.4788ZM33.3542 52.7727C28.4757 52.7727 24.0044 51.8789 22.4797 50.599C22.1421 50.3149 21.9708 50.0287 21.9708 49.7455C21.9718 48.2833 26.5459 46.7182 33.3542 46.7182C38.2326 46.7182 42.704 47.6111 44.2277 48.8919C44.5663 49.1761 44.7376 49.4633 44.7376 49.7455C44.7376 51.2087 40.1624 52.7737 33.3542 52.7727Z" fill="#2C3E50"/>
<path d="M33.3536 53.6248C28.1698 53.6248 23.5373 52.6584 21.8251 51.2204C21.2921 50.7729 21.022 50.2812 21.022 49.7612C21.022 47.2509 27.3758 45.8965 33.3536 45.8965C38.5374 45.8965 43.171 46.8629 44.8822 48.3009C45.4152 48.7474 45.6853 49.2402 45.6853 49.7612C45.6853 52.2704 39.3315 53.6248 33.3536 53.6248ZM33.3536 46.4004C26.8316 46.4004 21.5258 47.9079 21.5258 49.7612C21.5258 50.126 21.7355 50.4877 22.1496 50.8344C23.7781 52.2019 28.2807 53.121 33.3547 53.121C39.8767 53.121 45.1825 51.6134 45.1825 49.7612C45.1825 49.3954 44.9728 49.0336 44.5587 48.6869C42.9312 47.3194 38.4286 46.4004 33.3536 46.4004ZM33.3536 53.0393C28.4208 53.0393 23.8829 52.1213 22.3179 50.8072C21.9199 50.4726 21.7183 50.1199 21.7183 49.7612C21.7183 47.923 26.8296 46.482 33.3536 46.482C38.2865 46.482 42.8254 47.4 44.3894 48.7141C44.7874 49.0487 44.989 49.4014 44.989 49.7612C44.988 51.5993 39.8777 53.0393 33.3536 53.0393ZM33.3536 46.9859C26.4577 46.9859 22.2232 48.6033 22.2222 49.7612C22.2222 49.9647 22.3633 50.1874 22.6424 50.4212C24.1248 51.6658 28.5296 52.5355 33.3536 52.5355C40.2496 52.5355 44.4841 50.9191 44.4841 49.7612C44.4841 49.5566 44.343 49.3339 44.0639 49.1001C42.5835 47.8555 38.1787 46.9859 33.3536 46.9859Z" fill="#2C3E50"/>
<path d="M27.0551 40.0688C29.3064 40.4679 32.4939 42.5197 35.3145 45.1136C35.0898 45.2133 34.8691 45.3262 34.6525 45.4481C30.423 41.5845 26.6238 40.0245 25.3904 40.9577C25.2856 40.7561 25.1515 40.5657 24.9883 40.4004C25.5002 40.0205 26.2046 39.9177 27.0551 40.0688Z" fill="#2C3E50"/>
<path d="M34.4819 45.5994C30.2705 41.7529 26.6296 40.3068 25.5412 41.1241L25.3034 41.3044L25.1664 41.0394C25.0676 40.8499 24.9477 40.6837 24.8086 40.5436L24.603 40.338L24.8368 40.1647C25.3991 39.7455 26.16 39.6195 27.0992 39.7858C29.2961 40.1748 32.4301 42.0834 35.4846 44.893L35.7667 45.153L35.415 45.3082C35.1974 45.4049 34.9837 45.5148 34.7731 45.6327L34.6149 45.7203L34.4819 45.5994ZM27.0115 40.2816C26.3454 40.1637 25.7942 40.212 25.3719 40.4247C25.4102 40.4741 25.4455 40.5255 25.4798 40.5768C27.0972 39.812 30.8601 41.6461 34.6895 45.1056C34.7489 45.0744 34.8084 45.0431 34.8688 45.0119C32.0079 42.4402 29.0209 40.6383 27.0115 40.2816Z" fill="#2C3E50"/>
<path d="M29.2997 50.4721C28.6245 50.4721 28.0713 49.9198 28.0713 49.2437V46.0683C28.0713 45.3931 28.6235 44.8398 29.2997 44.8398C29.9749 44.8398 30.5282 45.3921 30.5282 46.0683V49.2437C30.5271 49.9198 29.9749 50.4721 29.2997 50.4721Z" fill="#3B97D3"/>
<path d="M33.2734 50.4785C32.5982 50.4785 32.0449 49.9262 32.0449 49.25V42.2069C32.0449 41.5318 32.5972 40.9785 33.2734 40.9785C33.9485 40.9785 34.5008 41.5308 34.5008 42.2069V49.25C34.5018 49.9262 33.9495 50.4785 33.2734 50.4785Z" fill="#3B97D3"/>
<path d="M37.247 50.4638C36.5718 50.4638 36.0186 49.9116 36.0186 49.2354V38.8144C36.0186 38.1392 36.5708 37.5859 37.247 37.5859C37.9222 37.5859 38.4754 38.1382 38.4754 38.8144V49.2354C38.4754 49.9116 37.9222 50.4638 37.247 50.4638Z" fill="#3B97D3"/>
<path opacity="0.3" d="M50.1828 36.4962C49.4623 34.7911 47.5859 31.2932 46.5036 29.7937L45.4544 30.5505C45.3919 30.4638 45.3234 30.3641 45.266 30.2845L44.7137 30.6825C44.4759 30.3258 44.2492 29.9882 44.0537 29.707L42.3979 30.8569C43.6213 32.6174 45.6147 35.7605 46.2164 37.2389C48.7428 43.4415 49.8321 58.3439 46.3111 63.6345C45.6319 64.6553 45.9302 65.2368 46.299 65.5452C46.5217 65.7306 46.7725 65.7991 47.0154 65.7991C47.0295 65.7991 47.0416 65.7941 47.0557 65.7941L47.082 65.8384C47.1143 65.8193 47.1404 65.7991 47.1716 65.779C47.354 65.7578 47.5305 65.7124 47.6796 65.6469L47.6866 65.659C47.7481 65.6218 47.7924 65.5945 47.8246 65.5754C47.9476 65.5089 48.0443 65.4373 48.1007 65.3829L48.1059 65.3174C48.1986 65.2952 48.2903 65.2731 48.387 65.2539C48.8667 65.1602 49.5227 65.0312 49.9258 64.3752C53.6 58.3771 52.7666 42.6071 50.1828 36.4962Z" fill="#BDC3C7"/>
<path d="M20.6229 28.9492C20.6229 28.9492 17.119 33.7118 16.1627 36.0225C13.5909 42.2312 12.9833 56.9814 16.1627 62.9008C19.7049 69.4965 46.801 68.9523 50.4339 62.9008C53.8924 57.1396 53.0056 42.2312 50.4339 36.0225C49.7516 34.3759 47.588 31.0816 46.5097 29.5559" stroke="#2C3E50" stroke-width="4" stroke-miterlimit="10"/>
<path d="M33.8345 26.1025C41.1928 26.1025 47.1578 24.5126 47.1578 22.5513C47.1578 20.59 41.1928 19 33.8345 19C26.4763 19 20.5112 20.59 20.5112 22.5513C20.5112 24.5126 26.4763 26.1025 33.8345 26.1025Z" stroke="#2C3E50" stroke-width="4" stroke-miterlimit="10"/>
<path d="M20.5107 24.4785V28.8622" stroke="#2C3E50" stroke-width="3" stroke-miterlimit="10" stroke-linecap="round" stroke-linejoin="round"/>
<path d="M46.5098 29.5751C44.5971 30.7854 39.756 32.1791 33.8345 32.1791C26.476 32.1791 20.5112 30.4921 20.5112 28.4102" stroke="#2C3E50" stroke-width="4" stroke-miterlimit="10" stroke-linecap="round"/>
<path d="M33.452 62.7406C36.8492 62.7406 39.6032 62.2998 39.6032 61.756C39.6032 61.2123 36.8492 60.7715 33.452 60.7715C30.0548 60.7715 27.3008 61.2123 27.3008 61.756C27.3008 62.2998 30.0548 62.7406 33.452 62.7406Z" fill="#ECF0F1"/>
<path d="M24.9876 40.3848C25.1508 40.55 25.2849 40.7395 25.3897 40.942C25.3534 40.9693 25.3111 40.9914 25.2798 41.0227C24.0675 42.235 26.0034 46.7668 30.8173 51.5817C31.3666 52.1299 31.9087 52.6358 32.4448 53.1084C32.079 53.1084 31.7485 53.1084 31.4119 53.1084C31.0431 52.7708 30.6783 52.4282 30.3246 52.0745C26.1253 47.8753 22.9056 42.4093 24.786 40.5299C24.8465 40.4714 24.9221 40.4341 24.9876 40.3848Z" fill="#2C3E50"/>
<path d="M31.2432 53.3129C30.8724 52.9723 30.5046 52.6277 30.1488 52.2719C25.9214 48.0455 22.5445 42.4364 24.6103 40.3706C24.6678 40.3131 24.7292 40.2728 24.7786 40.2416L25.0134 40.0723L25.1666 40.2264C25.3419 40.4028 25.4921 40.6104 25.614 40.8442L25.7118 41.0316L25.4598 41.2201C24.9459 41.734 25.1595 43.1277 26.0161 44.859C27.0178 46.8805 28.7864 49.2114 30.9974 51.4234C31.5133 51.9394 32.0575 52.4493 32.6138 52.9391L33.1136 53.3804H31.3158L31.2432 53.3129ZM30.6406 51.7781C28.3924 49.5289 26.5885 47.1506 25.5636 45.0817C24.5821 43.0995 24.4057 41.6181 25.0658 40.9006C25.0295 40.8442 24.9912 40.7918 24.9509 40.7404C23.2398 42.5019 26.4938 47.9044 30.5046 51.9152C30.8321 52.2427 31.1707 52.5611 31.5113 52.8746H31.7884C31.3964 52.5158 31.0115 52.149 30.6406 51.7781Z" fill="#2C3E50"/>
<path d="M66.8119 31.404C66.8119 30.0787 67.0172 28.8747 67.4279 27.792C67.8572 26.6906 68.4452 25.7573 69.1919 24.992C69.9572 24.208 70.8626 23.6013 71.9079 23.172C72.9532 22.7426 74.1012 22.528 75.3519 22.528C76.3039 22.528 77.1439 22.6493 77.8719 22.892C78.6186 23.116 79.2719 23.4426 79.8319 23.872V27.484C78.5439 26.364 77.1066 25.804 75.5199 25.804C74.7546 25.804 74.0546 25.9346 73.4199 26.196C72.8039 26.4573 72.2719 26.84 71.8239 27.344C71.3759 27.8293 71.0306 28.4173 70.7879 29.108C70.5452 29.7987 70.4239 30.564 70.4239 31.404C70.4239 32.244 70.5452 33.0093 70.7879 33.7C71.0306 34.372 71.3759 34.96 71.8239 35.464C72.2719 35.9493 72.8039 36.3227 73.4199 36.584C74.0546 36.8453 74.7546 36.976 75.5199 36.976C76.3412 36.976 77.0972 36.8453 77.7879 36.584C78.4972 36.3227 79.1786 35.9027 79.8319 35.324V38.936C79.2719 39.3653 78.6186 39.7013 77.8719 39.944C77.1439 40.168 76.3039 40.28 75.3519 40.28C74.1012 40.28 72.9532 40.0653 71.9079 39.636C70.8626 39.2067 69.9572 38.6093 69.1919 37.844C68.4452 37.06 67.8572 36.1267 67.4279 35.044C67.0172 33.9427 66.8119 32.7293 66.8119 31.404ZM94.3943 22.808V25.944H86.2463V29.696H93.6383V32.748H86.2463V36.836H94.3943V40H82.7183V22.808H94.3943ZM100.712 33.588V40H97.1558V22.808H104.24C106.05 22.808 107.506 23.2746 108.608 24.208C109.709 25.1413 110.26 26.4946 110.26 28.268C110.26 29.6493 109.905 30.7693 109.196 31.628C108.505 32.468 107.553 33.0373 106.34 33.336L110.876 40H106.844L102.588 33.588H100.712ZM100.712 30.648H104.016C104.912 30.648 105.584 30.4333 106.032 30.004C106.498 29.556 106.732 28.9773 106.732 28.268C106.732 27.54 106.498 26.9613 106.032 26.532C105.584 26.084 104.912 25.86 104.016 25.86H100.712V30.648ZM127.325 40H124.497L116.377 28.548V40H112.933V22.808H116.293L123.881 33.672V22.808H127.325V40ZM74.3159 50.552L71.5159 57.888H77.1439L74.3159 50.552ZM79.8599 65L77.8719 59.82H70.7879L68.8279 65H66.5879L73.3079 47.808H75.3799L82.0999 65H79.8599ZM84.5556 65V52.568H86.6556V54.136C87.0103 53.6507 87.5049 53.2307 88.1396 52.876C88.7929 52.5027 89.5209 52.316 90.3236 52.316C91.7236 52.316 92.7969 52.736 93.5436 53.576C94.3089 54.416 94.6916 55.508 94.6916 56.852V65H92.5636V57.188C92.5636 56.3293 92.3396 55.6293 91.8916 55.088C91.4436 54.528 90.7529 54.248 89.8196 54.248C89.0916 54.248 88.4383 54.472 87.8596 54.92C87.2809 55.3493 86.8796 55.9 86.6556 56.572V65H84.5556ZM105.171 61.92V60.632C105.003 60.1653 104.639 59.792 104.079 59.512C103.537 59.232 102.94 59.092 102.287 59.092C101.54 59.092 100.859 59.2693 100.243 59.624C99.6268 59.96 99.3188 60.5013 99.3188 61.248C99.3188 61.9947 99.6268 62.5547 100.243 62.928C100.859 63.2827 101.54 63.46 102.287 63.46C102.94 63.46 103.537 63.32 104.079 63.04C104.639 62.76 105.003 62.3867 105.171 61.92ZM105.171 58.364V56.74C105.171 55.9747 104.9 55.368 104.359 54.92C103.836 54.472 103.117 54.248 102.203 54.248C101.512 54.248 100.877 54.3507 100.299 54.556C99.7388 54.7427 99.1975 55.004 98.6748 55.34V53.352C99.0855 53.0533 99.6361 52.8107 100.327 52.624C101.036 52.4187 101.773 52.316 102.539 52.316C103.995 52.316 105.133 52.6987 105.955 53.464C106.795 54.2293 107.215 55.2653 107.215 56.572V65H105.171V64.076C104.928 64.3187 104.508 64.5707 103.911 64.832C103.332 65.0933 102.679 65.224 101.951 65.224C100.681 65.224 99.5895 64.8693 98.6748 64.16C97.7788 63.4507 97.3308 62.48 97.3308 61.248C97.3308 60.0907 97.7881 59.1573 98.7028 58.448C99.6175 57.72 100.737 57.356 102.063 57.356C102.697 57.356 103.304 57.468 103.883 57.692C104.48 57.8973 104.909 58.1213 105.171 58.364ZM112.906 46.8V65H110.806V46.8H112.906ZM120.325 69.76H118.253L120.129 65.084L115.285 52.568H117.553L121.221 62.368L124.833 52.568H127.017L120.325 69.76ZM128.589 64.02V61.78C129.168 62.3027 129.803 62.7133 130.493 63.012C131.203 63.3107 131.931 63.46 132.677 63.46C133.368 63.46 133.965 63.3293 134.469 63.068C134.992 62.788 135.253 62.34 135.253 61.724C135.253 61.2573 135.085 60.8933 134.749 60.632C134.432 60.352 134.003 60.1187 133.461 59.932L131.753 59.344C130.82 59.0453 130.064 58.6347 129.485 58.112C128.907 57.5893 128.617 56.824 128.617 55.816C128.617 54.7333 129.037 53.884 129.877 53.268C130.736 52.6333 131.781 52.316 133.013 52.316C133.704 52.316 134.367 52.4093 135.001 52.596C135.636 52.7827 136.205 53.0533 136.709 53.408V55.592C136.187 55.1627 135.627 54.808 135.029 54.528C134.432 54.248 133.76 54.108 133.013 54.108C132.379 54.108 131.828 54.248 131.361 54.528C130.895 54.808 130.661 55.2093 130.661 55.732C130.661 56.236 130.82 56.6093 131.137 56.852C131.473 57.076 131.931 57.2907 132.509 57.496L134.413 58.14C135.347 58.4573 136.065 58.9053 136.569 59.484C137.073 60.044 137.325 60.7627 137.325 61.64C137.325 62.7787 136.868 63.6653 135.953 64.3C135.057 64.9347 133.965 65.252 132.677 65.252C131.875 65.252 131.109 65.14 130.381 64.916C129.653 64.6733 129.056 64.3747 128.589 64.02ZM142.718 48.816C142.718 49.1707 142.578 49.488 142.298 49.768C142.036 50.0293 141.719 50.16 141.346 50.16C140.991 50.16 140.674 50.0293 140.394 49.768C140.132 49.488 140.002 49.1707 140.002 48.816C140.002 48.4427 140.132 48.1253 140.394 47.864C140.674 47.6027 140.991 47.472 141.346 47.472C141.719 47.472 142.036 47.6027 142.298 47.864C142.578 48.1253 142.718 48.4427 142.718 48.816ZM142.41 52.568V65H140.31V52.568H142.41ZM145.433 64.02V61.78C146.012 62.3027 146.646 62.7133 147.337 63.012C148.046 63.3107 148.774 63.46 149.521 63.46C150.212 63.46 150.809 63.3293 151.313 63.068C151.836 62.788 152.097 62.34 152.097 61.724C152.097 61.2573 151.929 60.8933 151.593 60.632C151.276 60.352 150.846 60.1187 150.305 59.932L148.597 59.344C147.664 59.0453 146.908 58.6347 146.329 58.112C145.75 57.5893 145.461 56.824 145.461 55.816C145.461 54.7333 145.881 53.884 146.721 53.268C147.58 52.6333 148.625 52.316 149.857 52.316C150.548 52.316 151.21 52.4093 151.845 52.596C152.48 52.7827 153.049 53.0533 153.553 53.408V55.592C153.03 55.1627 152.47 54.808 151.873 54.528C151.276 54.248 150.604 54.108 149.857 54.108C149.222 54.108 148.672 54.248 148.205 54.528C147.738 54.808 147.505 55.2093 147.505 55.732C147.505 56.236 147.664 56.6093 147.981 56.852C148.317 57.076 148.774 57.2907 149.353 57.496L151.257 58.14C152.19 58.4573 152.909 58.9053 153.413 59.484C153.917 60.044 154.169 60.7627 154.169 61.64C154.169 62.7787 153.712 63.6653 152.797 64.3C151.901 64.9347 150.809 65.252 149.521 65.252C148.718 65.252 147.953 65.14 147.225 64.916C146.497 64.6733 145.9 64.3747 145.433 64.02ZM169.857 58.112H165.713V65H163.501V47.808H169.857C171.593 47.808 172.984 48.2467 174.029 49.124C175.074 50.0013 175.597 51.28 175.597 52.96C175.597 54.64 175.074 55.9187 174.029 56.796C172.984 57.6733 171.593 58.112 169.857 58.112ZM169.829 56.152C170.986 56.152 171.873 55.8627 172.489 55.284C173.105 54.6867 173.413 53.912 173.413 52.96C173.413 51.9893 173.105 51.2147 172.489 50.636C171.873 50.0387 170.986 49.74 169.829 49.74H165.713V56.152H169.829ZM184.674 52.512V54.668C184.506 54.556 184.291 54.472 184.03 54.416C183.787 54.36 183.535 54.332 183.274 54.332C182.621 54.332 182.023 54.5373 181.482 54.948C180.959 55.3587 180.595 55.928 180.39 56.656V65H178.29V52.568H180.39V54.192C180.651 53.6693 181.053 53.2307 181.594 52.876C182.154 52.5027 182.779 52.316 183.47 52.316C183.731 52.316 183.965 52.3347 184.17 52.372C184.394 52.4093 184.562 52.456 184.674 52.512ZM191.607 54.108C190.804 54.108 190.085 54.388 189.451 54.948C188.816 55.508 188.405 56.3573 188.219 57.496H194.631C194.593 56.5813 194.332 55.788 193.847 55.116C193.361 54.444 192.615 54.108 191.607 54.108ZM195.807 64.16C195.303 64.552 194.733 64.832 194.099 65C193.464 65.168 192.773 65.252 192.027 65.252C190.235 65.252 188.788 64.6827 187.687 63.544C186.585 62.3867 186.035 60.8373 186.035 58.896C186.035 56.9733 186.548 55.396 187.575 54.164C188.601 52.932 189.936 52.316 191.579 52.316C193.259 52.316 194.528 52.876 195.387 53.996C196.245 55.116 196.675 56.5813 196.675 58.392V59.148H188.107C188.163 60.5853 188.592 61.6587 189.395 62.368C190.197 63.0587 191.159 63.404 192.279 63.404C192.969 63.404 193.585 63.3107 194.127 63.124C194.687 62.9373 195.247 62.6387 195.807 62.228V64.16ZM198.918 64.02V61.78C199.496 62.3027 200.131 62.7133 200.822 63.012C201.531 63.3107 202.259 63.46 203.006 63.46C203.696 63.46 204.294 63.3293 204.798 63.068C205.32 62.788 205.582 62.34 205.582 61.724C205.582 61.2573 205.414 60.8933 205.078 60.632C204.76 60.352 204.331 60.1187 203.79 59.932L202.082 59.344C201.148 59.0453 200.392 58.6347 199.814 58.112C199.235 57.5893 198.946 56.824 198.946 55.816C198.946 54.7333 199.366 53.884 200.206 53.268C201.064 52.6333 202.11 52.316 203.342 52.316C204.032 52.316 204.695 52.4093 205.33 52.596C205.964 52.7827 206.534 53.0533 207.038 53.408V55.592C206.515 55.1627 205.955 54.808 205.358 54.528C204.76 54.248 204.088 54.108 203.342 54.108C202.707 54.108 202.156 54.248 201.69 54.528C201.223 54.808 200.99 55.2093 200.99 55.732C200.99 56.236 201.148 56.6093 201.466 56.852C201.802 57.076 202.259 57.2907 202.838 57.496L204.742 58.14C205.675 58.4573 206.394 58.9053 206.898 59.484C207.402 60.044 207.654 60.7627 207.654 61.64C207.654 62.7787 207.196 63.6653 206.282 64.3C205.386 64.9347 204.294 65.252 203.006 65.252C202.203 65.252 201.438 65.14 200.71 64.916C199.982 64.6733 199.384 64.3747 198.918 64.02ZM215.314 54.108C214.511 54.108 213.792 54.388 213.158 54.948C212.523 55.508 212.112 56.3573 211.926 57.496H218.338C218.3 56.5813 218.039 55.788 217.554 55.116C217.068 54.444 216.322 54.108 215.314 54.108ZM219.514 64.16C219.01 64.552 218.44 64.832 217.806 65C217.171 65.168 216.48 65.252 215.734 65.252C213.942 65.252 212.495 64.6827 211.394 63.544C210.292 62.3867 209.742 60.8373 209.742 58.896C209.742 56.9733 210.255 55.396 211.282 54.164C212.308 52.932 213.643 52.316 215.286 52.316C216.966 52.316 218.235 52.876 219.094 53.996C219.952 55.116 220.382 56.5813 220.382 58.392V59.148H211.814C211.87 60.5853 212.299 61.6587 213.102 62.368C213.904 63.0587 214.866 63.404 215.986 63.404C216.676 63.404 217.292 63.3107 217.834 63.124C218.394 62.9373 218.954 62.6387 219.514 62.228V64.16ZM229.627 52.512V54.668C229.459 54.556 229.245 54.472 228.983 54.416C228.741 54.36 228.489 54.332 228.227 54.332C227.574 54.332 226.977 54.5373 226.435 54.948C225.913 55.3587 225.549 55.928 225.343 56.656V65H223.243V52.568H225.343V54.192C225.605 53.6693 226.006 53.2307 226.547 52.876C227.107 52.5027 227.733 52.316 228.423 52.316C228.685 52.316 228.918 52.3347 229.123 52.372C229.347 52.4093 229.515 52.456 229.627 52.512ZM237.755 65H235.683L230.867 52.568H233.135L236.775 62.34L240.387 52.568H242.599L237.755 65ZM251.679 61.92V60.632C251.511 60.1653 251.147 59.792 250.587 59.512C250.045 59.232 249.448 59.092 248.795 59.092C248.048 59.092 247.367 59.2693 246.751 59.624C246.135 59.96 245.827 60.5013 245.827 61.248C245.827 61.9947 246.135 62.5547 246.751 62.928C247.367 63.2827 248.048 63.46 248.795 63.46C249.448 63.46 250.045 63.32 250.587 63.04C251.147 62.76 251.511 62.3867 251.679 61.92ZM251.679 58.364V56.74C251.679 55.9747 251.408 55.368 250.867 54.92C250.344 54.472 249.625 54.248 248.711 54.248C248.02 54.248 247.385 54.3507 246.807 54.556C246.247 54.7427 245.705 55.004 245.183 55.34V53.352C245.593 53.0533 246.144 52.8107 246.835 52.624C247.544 52.4187 248.281 52.316 249.047 52.316C250.503 52.316 251.641 52.6987 252.463 53.464C253.303 54.2293 253.723 55.2653 253.723 56.572V65H251.679V64.076C251.436 64.3187 251.016 64.5707 250.419 64.832C249.84 65.0933 249.187 65.224 248.459 65.224C247.189 65.224 246.097 64.8693 245.183 64.16C244.287 63.4507 243.839 62.48 243.839 61.248C243.839 60.0907 244.296 59.1573 245.211 58.448C246.125 57.72 247.245 57.356 248.571 57.356C249.205 57.356 249.812 57.468 250.391 57.692C250.988 57.8973 251.417 58.1213 251.679 58.364ZM260.703 54.36V65H258.603V54.36H255.999V52.568H258.603V49.292H260.703V52.568H263.587V54.36H260.703ZM268.554 48.816C268.554 49.1707 268.414 49.488 268.134 49.768C267.872 50.0293 267.555 50.16 267.182 50.16C266.827 50.16 266.51 50.0293 266.23 49.768C265.968 49.488 265.838 49.1707 265.838 48.816C265.838 48.4427 265.968 48.1253 266.23 47.864C266.51 47.6027 266.827 47.472 267.182 47.472C267.555 47.472 267.872 47.6027 268.134 47.864C268.414 48.1253 268.554 48.4427 268.554 48.816ZM268.246 52.568V65H266.146V52.568H268.246ZM282.525 58.784C282.525 60.6693 281.993 62.2187 280.929 63.432C279.865 64.6453 278.493 65.252 276.813 65.252C275.114 65.252 273.733 64.6453 272.669 63.432C271.624 62.2187 271.101 60.6693 271.101 58.784C271.101 56.8987 271.624 55.3493 272.669 54.136C273.733 52.9227 275.114 52.316 276.813 52.316C278.493 52.316 279.865 52.9227 280.929 54.136C281.993 55.3493 282.525 56.8987 282.525 58.784ZM280.397 58.784C280.397 57.44 280.08 56.3387 279.445 55.48C278.81 54.6027 277.933 54.164 276.813 54.164C275.693 54.164 274.816 54.6027 274.181 55.48C273.546 56.3387 273.229 57.44 273.229 58.784C273.229 60.128 273.546 61.2387 274.181 62.116C274.816 62.9747 275.693 63.404 276.813 63.404C277.933 63.404 278.81 62.9747 279.445 62.116C280.08 61.2387 280.397 60.128 280.397 58.784ZM285.368 65V52.568H287.468V54.136C287.823 53.6507 288.318 53.2307 288.952 52.876C289.606 52.5027 290.334 52.316 291.136 52.316C292.536 52.316 293.61 52.736 294.356 53.576C295.122 54.416 295.504 55.508 295.504 56.852V65H293.376V57.188C293.376 56.3293 293.152 55.6293 292.704 55.088C292.256 54.528 291.566 54.248 290.632 54.248C289.904 54.248 289.251 54.472 288.672 54.92C288.094 55.3493 287.692 55.9 287.468 56.572V65H285.368Z" fill="#2C3E50"/>
</svg>
